<svg width="201" height="57" viewBox="0 0 201 57" fill="none" xmlns="http://www.w3.org/2000/svg">
<g clip-path="url(#clip0_78_15)">
<path d="M45.1334 24.6439V24.6394C45.3367 24.0267 45.4411 23.3866 45.4411 22.7371C45.4411 19.3611 42.679 16.6167 39.283 16.6167C37.1033 16.6167 35.0703 17.7818 33.9721 19.6281V19.612L33.8818 19.789C33.8264 19.8832 33.7743 19.9819 33.7269 20.0821L29.8437 27.5565C29.4387 28.2944 28.6614 28.7542 27.812 28.7542C26.5335 28.7542 25.4955 27.7198 25.4955 26.4531V26.4163V26.3335C25.5141 25.352 26.0231 23.2911 29.1228 20.1463C33.065 16.1453 36.6751 14.9718 36.7211 14.9568C38.0057 14.4211 39.3722 14.15 40.7759 14.15C46.5817 14.15 51.2992 18.8405 51.2992 24.6072C51.2992 30.3737 46.5817 35.0619 40.7759 35.0619C39.6708 35.0619 38.5843 34.8943 37.5431 34.5575C41.5244 31.4622 44.0792 28.1267 45.1334 24.6439ZM21.9469 24.5727L21.9388 24.6003C21.7478 25.1978 21.653 25.8198 21.653 26.4531C21.653 29.8278 24.4148 32.5736 27.812 32.5736C30.0092 32.5736 32.0445 31.392 33.1438 29.5242V29.5313L33.1772 29.4565C33.2548 29.3289 33.3253 29.1956 33.3843 29.0589L37.1462 21.8393L37.2027 21.7242L37.2108 21.7061C37.6053 20.9223 38.3992 20.4348 39.283 20.4348C40.556 20.4348 41.595 21.4681 41.595 22.7371V22.8302V22.8772L41.5982 22.8808C41.581 23.8509 41.0881 25.9014 38.024 29.007C34.0763 33.0116 30.4223 34.2621 30.39 34.2737L30.3808 34.2782C29.1103 34.7989 27.7611 35.0619 26.3796 35.0619C20.5722 35.0619 15.8515 30.3737 15.8515 24.6072C15.8515 18.8405 20.5722 14.15 26.3796 14.15C27.4718 14.15 28.5479 14.3154 29.5869 14.6466C25.5696 17.7668 23.0019 21.1062 21.9469 24.5727ZM40.674 10.35C38.1701 10.35 35.7053 11.0004 33.5442 12.2315C31.3734 10.9854 28.8974 10.3294 26.3796 10.3294C18.4547 10.3294 12.0088 16.7336 12.0088 24.6072C12.0088 32.4805 18.4547 38.8829 26.3796 38.8829C28.8974 38.8829 31.3734 38.2255 33.5442 36.9814C35.7053 38.2114 38.1701 38.8619 40.674 38.8619C48.5846 38.8619 55.0213 32.4691 55.0213 24.6072C55.0213 16.7455 48.5846 10.35 40.674 10.35Z" fill="#EF6B1C"/>
<path d="M116.953 32.6749H121.01V16.6935H108.99V18.6406C108.99 25.6084 108.085 28.2013 105.285 29.1899V32.6655C106.345 32.5599 112.707 31.4885 112.755 21.183V20.1222H116.953V32.6749Z" fill="#EF6B1C"/>
<path d="M105.554 16.6935H94.0709V32.6771H98.1576V20.2164H105.554V16.6935Z" fill="#EF6B1C"/>
<path d="M129.398 26.5968L131.398 21.5902L133.374 26.5968H129.398ZM133.444 16.5602H129.419L122.72 32.6771H127.01L128.228 29.6911H134.524L135.748 32.6771H140.124L133.444 16.5602Z" fill="#EF6B1C"/>
<path d="M172.397 32.6839V16.727H168.53L161.403 26.2197V16.727H157.362V32.6839H161.231L168.352 23.3693V32.6839H172.397Z" fill="#EF6B1C"/>
<path d="M180.147 29.2749V26.3048H188.515V23.1647H180.147V20.4945H189.306V16.7256H176.1V32.6839H189.42V29.2749H180.147Z" fill="#EF6B1C"/>
<path d="M84.7359 28.8357C84.3239 28.9599 83.9006 29.0496 83.4468 29.0496C81.649 29.0496 80.103 27.9599 79.4388 26.4106C79.2234 25.8933 79.1033 25.3256 79.1033 24.7278C79.1033 24.1323 79.2234 23.5646 79.4388 23.0484C80.103 21.4981 81.649 20.4083 83.4468 20.4083C83.9006 20.4083 84.3239 20.498 84.7359 20.6233C86.5014 21.1704 87.7952 22.7898 87.7952 24.7278C87.7952 26.6657 86.5014 28.2886 84.7359 28.8357ZM83.4468 16.4084C80.6236 16.4084 78.0899 17.7993 76.544 19.9282L76.5299 19.9418C74.7135 22.3819 72.3505 28.9852 67.5026 28.9852C64.4782 28.9852 62.8233 26.7415 62.9993 24.3646C63.1729 21.9852 65.258 20.1944 67.6508 20.3693C68.979 20.4659 70.1059 21.1579 70.8372 22.1509L73.2322 18.8175C71.8671 17.4476 70.0342 16.5305 67.9445 16.3787C63.3327 16.0455 59.3177 19.4889 58.9797 24.0728C58.6418 28.6542 62.1152 32.6426 66.7274 32.9759C67.028 32.9988 67.3361 33.0012 67.6438 32.9919H67.6832C69.6362 32.9919 71.844 32.1598 73.2856 31.0886C74.3917 30.2679 75.2386 29.3668 75.8959 28.4864C77.3076 31.192 80.1817 33.0495 83.4468 33.0495C88.0751 33.0495 91.8242 29.3232 91.8242 24.7278C91.8242 20.1327 88.0751 16.4084 83.4468 16.4084Z" fill="#EF6B1C"/>
<path d="M152.088 27.7462L151.75 28.0611L151.73 28.0496C150.894 28.7737 149.848 29.1691 148.763 29.1691C146.268 29.1691 144.243 27.1553 144.243 24.6783C144.243 22.2014 146.268 20.1888 148.763 20.1888C150.038 20.1888 151.253 20.736 152.118 21.7005L152.278 21.5532L154.28 18.7658C152.722 17.2752 150.705 16.4544 148.578 16.4544C144.012 16.4544 140.3 20.1463 140.3 24.6783C140.3 29.215 144.012 32.9047 148.578 32.9047C150.894 32.9047 153.116 31.907 154.699 30.1667L152.088 27.7462Z" fill="#EF6B1C"/>
<path d="M117.06 39.3148H123.415V40.3453H120.775V46.0975H119.673V40.3453H117.06V39.3148Z" fill="#EF6B1C"/>
<path d="M124.754 42.067H129.048C128.982 40.854 128.207 40.1628 126.986 40.1628C125.712 40.1628 124.925 40.9584 124.754 42.067ZM129.953 44.8062C129.31 45.7584 128.338 46.2152 127.222 46.2152C125.056 46.2152 123.585 44.8452 123.585 42.6933C123.585 40.6974 124.793 39.1582 127.065 39.1582C128.863 39.1582 130.217 40.3585 130.217 42.2365C130.217 42.4585 130.203 42.7582 130.15 43.0583H124.767C124.832 44.4279 125.87 45.1844 127.261 45.1844C128.089 45.1844 128.838 44.7409 129.244 44.1539L129.953 44.8062Z" fill="#EF6B1C"/>
<path d="M134.575 42.589L137.319 46.0975H135.94L133.827 43.3713L131.686 46.0975H130.374L133.105 42.6022L130.518 39.3148H131.896L133.866 41.8059L135.849 39.3148H137.188L134.575 42.589Z" fill="#EF6B1C"/>
<path d="M143.202 43.1626H139.262V46.0975H138.16V39.3148H139.262V42.1321H143.202V39.3148H144.304V46.0975H143.202V43.1626Z" fill="#EF6B1C"/>
<path d="M149.137 45.1844C150.593 45.1844 151.605 44.1801 151.605 42.6933C151.605 41.1933 150.541 40.1889 149.137 40.1889C147.731 40.1889 146.695 41.1799 146.695 42.6933C146.695 44.1407 147.705 45.1844 149.137 45.1844ZM149.137 39.1582C151.29 39.1582 152.773 40.6321 152.773 42.6933C152.773 44.7409 151.29 46.2152 149.137 46.2152C147.022 46.2152 145.526 44.7409 145.526 42.6933C145.526 40.6321 146.996 39.1582 149.137 39.1582Z" fill="#EF6B1C"/>
<path d="M158.669 40.3585H155.781V40.6715C155.781 45.1844 154.677 46.293 153.062 46.0976V45.0538C153.942 45.0538 154.677 44.676 154.677 40.7106V39.3148H159.772V46.0976H158.669V40.3585Z" fill="#EF6B1C"/>
<path d="M164.603 45.1844C166.061 45.1844 167.072 44.1801 167.072 42.6933C167.072 41.1933 166.009 40.1889 164.603 40.1889C163.199 40.1889 162.161 41.1799 162.161 42.6933C162.161 44.1407 163.172 45.1844 164.603 45.1844ZM164.603 39.1582C166.757 39.1582 168.241 40.6321 168.241 42.6933C168.241 44.7409 166.757 46.2152 164.603 46.2152C162.49 46.2152 160.992 44.7409 160.992 42.6933C160.992 40.6321 162.463 39.1582 164.603 39.1582Z" fill="#EF6B1C"/>
<path d="M169.461 39.3148H174.438V40.3453H170.565V46.0975H169.461V39.3148Z" fill="#EF6B1C"/>
<path d="M175.265 46.0975V39.3148H176.368V44.402L180.517 39.3148H181.542V46.0975H180.438V41.0235L176.276 46.0975H175.265Z" fill="#EF6B1C"/>
<path d="M183.143 46.0975V39.3148H184.247V44.402L188.395 39.3148H189.42V46.0975H188.316V41.0235L184.154 46.0975H183.143Z" fill="#EF6B1C"/>
</g>
<defs>
<clipPath id="clip0_78_15">
<rect width="201" height="57" fill="white"/>
</clipPath>
</defs>
</svg>
